#!OML:ASF H:\Dans Jumps\Project 1\Capture day 1\Session 1\subject.ASF
:FULLY-SPECIFIED
:DEGREES
355
root 0.25372 16.1539 -6.57975 -2.87473 4.07573 -0.611354
lowerback 5.94195 0.764719 1.46126
upperback 4.18209 1.08317 3.20289
thorax 0.942191 0.534957 2.42201
lowerneck -9.92776 -1.18774 -2.66889
upperneck 36.3145 -1.10754 0.282764
head 14.0541 -0.753344 0.44188
rclavicle -4.17448e-015 0
rhumerus -18.3932 -20.5365 -75.9969
rradius 31.6337
rwrist 31.5569
rhand -20.132 -25.1657
rfingers 7.12502
rthumb 6.21237 -55.0546
lclavicle -4.17448e-015 0
lhumerus -20.3817 4.79612 72.9327
lradius 37.1198
lwrist 26.8119
lhand -30.6483 -11.0221
lfingers 7.12502
lthumb -3.94352 18.9211
rfemur -25.3663 -9.1446 17.6614
rtibia 59.2405
rfoot -24.3329 -2.43895
rtoes -5.31942
lfemur -24.1672 5.6161 -19.6577
ltibia 55.3361
lfoot -21.7527 11.2711
ltoes -4.94936
356
root 0.261631 16.1916 -6.562 -2.36705 3.58914 -0.469757
lowerback 5.55978 0.85691 1.35332
upperback 4.19985 1.18715 3.13533
thorax 1.16849 0.585164 2.41388
lowerneck -9.87923 -1.17135 -2.53847
upperneck 36.4835 -1.093 0.206889
head 14.119 -0.740825 0.390177
rclavicle -1.59028e-014 1.59028e-015
rhumerus -19.9322 -22.9673 -74.5457
rradius 29.0354
rwrist 34.2471
rhand -19.4814 -25.8339
rfingers 7.12502
rthumb 6.8405 -55.7034
lclavicle -1.59028e-014 1.59028e-015
lhumerus -21.9774 7.07103 72.2089
lradius 33.1823
lwrist 25.2213
lhand -29.695 -9.57689
lfingers 7.12502
lthumb -3.02294 20.3814
rfemur -25.6184 -9.05886 17.6129
rtibia 58.6289
rfoot -24.3298 -2.14561
rtoes -4.77242
lfemur -23.9441 5.77661 -19.8383
ltibia 54.2331
lfoot -21.8553 11.7896
ltoes -4.95226
357
root 0.269968 16.237 -6.54557 -1.81988 3.09371 -0.300937
lowerback 5.16658 0.925957 1.21339
upperback 4.19626 1.26099 3.04403
thorax 1.37979 0.619718 2.40165
lowerneck -9.8165 -1.13844 -2.38692
upperneck 36.5721 -1.05349 0.110074
head 14.1429 -0.717605 0.329586
rclavicle 1.98785e-015 2.46493e-014
rhumerus -21.5667 -25.8293 -72.8186
rradius 26.5014
rwrist 37.152
rhand -18.8585 -26.3436
rfingers 7.12502
rthumb 7.44174 -56.1927
lclavicle 1.98785e-015 2.46493e-014
lhumerus -23.5874 9.67328 71.1708
lradius 29.0961
lwrist 22.8962
lhand -28.5711 -8.244
lfingers 7.12502
lthumb -1.93748 21.7269
rfemur -25.8179 -8.93551 17.5688
rtibia 57.8356
rfoot -24.3391 -2.01078
rtoes -4.04242
lfemur -23.7325 5.94172 -20.0678
ltibia 53.0452
lfoot -21.819 12.312
ltoes -5.0144
358
root 0.279105 16.2898 -6.53117 -1.28651 2.59154 -0.148625
lowerback 4.81933 0.966683 1.09174
upperback 4.18914 1.30097 2.93563
thorax 1.56392 0.637796 2.36277
lowerneck -9.76168 -1.08792 -2.227
upperneck 36.5752 -0.99511 0.024096
head 14.1287 -0.684045 0.274401
rclavicle -1.5704e-014 1.43125e-014
rhumerus -23.4 -29.1592 -70.7213
rradius 24.1358
rwrist 40.3263
rhand -18.2709 -26.7152
rfingers 7.12502
rthumb 8.00891 -56.5435
lclavicle -1.5704e-014 1.43125e-014
lhumerus -25.2521 12.8422 69.6747
lradius 24.928
lwrist 19.6134
lhand -27.359 -7.01184
lfingers 7.12502
lthumb -0.766794 22.9665
rfemur -25.8979 -8.77635 17.5617
rtibia 56.8413
rfoot -24.351 -2.02804
rtoes -3.19007
lfemur -23.5335 6.12732 -20.2959
ltibia 51.8532
lfoot -21.6253 12.7528
ltoes -4.98222
359
root 0.288764 16.3481 -6.51904 -0.796343 2.08687 -0.0530126
lowerback 4.54994 0.979144 1.02574
upperback 4.1842 1.30839 2.82034
thorax 1.70958 0.640927 2.28561
lowerneck -9.72195 -1.02134 -2.0708
upperneck 36.4989 -0.925292 -0.0277997
head 14.0813 -0.642023 0.235205
rclavicle 1.80894e-014 -6.36111e-015
rhumerus -25.5684 -32.8565 -68.1567
rradius 22.0681
rwrist 43.6968
rhand -17.6788 -27.0356
rfingers 7.12502
rthumb 8.58033 -56.8413
lclavicle 1.80894e-014 -6.36111e-015
lhumerus -27.1163 16.9052 67.4653
lradius 20.8006
lwrist 14.9987
lhand -26.1807 -5.83485
lfingers 7.12502
lthumb 0.371246 24.1446
rfemur -25.8249 -8.57505 17.6218
rtibia 55.6511
rfoot -24.3689 -2.16723
rtoes -2.22195
lfemur -23.3542 6.32547 -20.4686
ltibia 50.7185
lfoot -21.3034 13.0519
ltoes -4.77615
360
root 0.298075 16.4094 -6.50937 -0.355165 1.59087 -0.0289645
lowerback 4.36548 0.966464 1.01876
upperback 4.18157 1.28679 2.70683
thorax 1.8126 0.631001 2.17656
lowerneck -9.69385 -0.94217 -1.92969
upperneck 36.3461 -0.850444 -0.0335694
head 14.0019 -0.594222 0.217998
rclavicle 5.36719e-015 6.36111e-015
rhumerus -28.1934 -36.6412 -65.0819
rradius 20.4069
rwrist 47.0946
rhand -17.0532 -27.3991
rfingers 7.12502
rthumb 9.18404 -57.1791
lclavicle 5.36719e-015 6.36111e-015
lhumerus -29.4982 22.2698 64.1001
lradius 16.8942
lwrist 8.47524
lhand -25.1323 -4.57941
lfingers 7.12502
lthumb 1.38377 25.3958
rfemur -25.6065 -8.32353 17.7577
rtibia 54.2984
rfoot -24.3845 -2.41827
rtoes -1.24205
lfemur -23.2021 6.5067 -20.5573
ltibia 49.6705
lfoot -20.9028 13.2005
ltoes -4.39674
